<?xml version="1.0" encoding="UTF-8"?>
<svg id="Layer_2" data-name="Layer 2" xmlns="http://www.w3.org/2000/svg" viewBox="0 0 10000 8388.76">
  <defs>
    <style>
      .cls-1, .cls-2, .cls-3, .cls-4 {
        stroke-width: 0px;
      }

      .cls-1 {
        fill: #fff;
      }

      .cls-2 {
        fill: #6fc990;
      }

      .cls-3 {
        fill: #265e3a;
      }

      .cls-4 {
        fill: #388d57;
      }
    </style>
  </defs>
  <path class="cls-1" d="m1723.31,2556.54s-308.08,2.87-462.2,2.88q-224.03.01-283.82,219.22c-48.93,180.42-96.96,361.09-148.57,553.49h1377.86c-39.44,147.49-75.75,283.64-112.25,419.74-146.76,547.24-292.52,1094.75-440.94,1641.54-51.16,188.5-142.4,256.21-329.19,256.23-369.63.04-739.27.01-1116.26.01-68.58,255.09-136.24,506.79-207.96,773.58,41.22,0,68.68,0,96.15,0,496.25.04,992.5-.97,1488.74.5,307.58.91,554.89-120.84,747.16-358.2,158.27-195.39,250.48-422.45,314.77-662.72,188.64-704.97,377.58-1409.86,566.19-2114.84,64.19-239.93,127.78-480.03,195.25-733.63l-1684.96,2.2Z"/>
  <path class="cls-2" d="m7005.68,1753.98c-110.77-474.8-378.77-829-860.45-976.39-168.46-51.55-349.96-76.12-526.57-82.24-440.53-15.25-862.2,92.38-1271.53,244.52-933.84,347.1-1752.45,879.73-2481.38,1555.47-22.55,20.91,189.95-81.38,269.56-134,773.74-511.48,1626.72-799.34,2546.81-889.23,478.99-46.8,955.19-26.21,1417.19,125.13,436.76,143.08,790.79,384.96,960.75,836.67,1.9,5.05,13.11,6.6,45.82,21.76-33.88-246.27-48.11-478.4-100.2-701.69Z"/>
  <path class="cls-4" d="m5761.27,206.52c297.5-95.53,609.04-164.16,928.04-191.65,392.93-33.86,782.84-16.72,1157.21,123.45,646.46,242.04,1000.26,711.42,1069.81,1396.43,56.27,554.24-92.56,1068.83-314.99,1566.27-291,650.8-707.21,1218.85-1178.73,1748.42-528.6,593.69-1121.54,1117.59-1748.74,1603.9-6.09,4.72-13.95,7.17-43.44,21.89,413-390.77,761.93-804.08,1065.71-1254.84,451.25-669.59,800.48-1385.96,976.84-2178.64,104.13-468.04,138.67-940.37,21.58-1410.64-175.38-704.34-639.09-1127.3-1328.19-1311.37-198.18-52.94-404.21-76.49-605.1-113.23Z"/>
  <path class="cls-1" d="m3903.61,5649.44h2100.98c-31.66,46.58-53.33,81.95-78.37,114.74-153.31,200.69-305.85,402.02-462.9,599.75-23.05,29.02-68.69,56.82-103.97,56.94-871.95,3.02-1743.92,2.24-2615.88,1.93-9.02,0-18.04-2.74-37.33-5.87,31.17-119.42,61.29-237.42,92.77-355.06,302.39-1129.91,605.96-2259.52,905.68-3390.14,22.56-85.09,53.58-117.67,146.43-114.96,258.6,7.54,517.56,2.63,776.37,2.64,30.21,0,60.42,0,103.68,0-276.56,1032.75-550.18,2054.55-827.46,3090.03Z"/>
  <path class="cls-3" d="m3300.37,8376.96c221.94-137.61,444.87-273.63,665.64-413.09,1178.56-744.52,2321.41-1538.08,3362.2-2469.96,619.33-554.51,1194.8-1149.51,1652.9-1848.32,299.61-457.04,535.17-941.92,625.12-1487.76,82.86-502.85,13.69-981.43-224.83-1433.67-5.44-10.31-9.27-21.46-5.52-38.92,19.51,23.73,40.09,46.68,58.38,71.32,645.98,870.43,717.34,1809.13,323.13,2798.05-270.27,678.03-702.92,1247.53-1211.33,1762.94-678.63,687.98-1467.95,1227.17-2302.46,1704.66-929.21,531.68-1903.45,967.5-2898.98,1357.66-10.91,4.28-22.83,5.99-34.27,8.9-3.32-3.93-6.65-7.87-9.97-11.8Z"/>
</svg>